<?xml version="1.0" encoding="UTF-8" standalone="no"?>
<!-- Created with Inkscape (http://www.inkscape.org/) -->

<svg
   width="512"
   height="512"
   viewBox="0 0 135.46666 135.46667"
   version="1.1"
   id="svg224"
   sodipodi:docname="logo.svg"
   inkscape:version="1.2.2 (b0a8486541, 2022-12-01)"
   xmlns:inkscape="http://www.inkscape.org/namespaces/inkscape"
   xmlns:sodipodi="http://sodipodi.sourceforge.net/DTD/sodipodi-0.dtd"
   xmlns="http://www.w3.org/2000/svg"
   xmlns:svg="http://www.w3.org/2000/svg">
  <sodipodi:namedview
     id="namedview226"
     pagecolor="#ffffff"
     bordercolor="#666666"
     borderopacity="1.0"
     inkscape:showpageshadow="2"
     inkscape:pageopacity="0.0"
     inkscape:pagecheckerboard="0"
     inkscape:deskcolor="#d1d1d1"
     inkscape:document-units="px"
     showgrid="false"
     inkscape:zoom="0.96875"
     inkscape:cx="256"
     inkscape:cy="256"
     inkscape:window-width="1366"
     inkscape:window-height="699"
     inkscape:window-x="0"
     inkscape:window-y="0"
     inkscape:window-maximized="1"
     inkscape:current-layer="layer1" />
  <defs
     id="defs221" />
  <g
     inkscape:label="Layer 1"
     inkscape:groupmode="layer"
     id="layer1">
    <g
       id="g415"
       transform="translate(-4.6700505e-7,-4.3555459)">
      <g
         id="g179"
         transform="matrix(0.34060719,0,0,0.34060719,-19.462278,-14.731796)">
        <path
           style="fill:#c83737;stroke-width:0.686617"
           d="m 386.28376,298.8287 c 5.09264,-8.36025 8.03411,-18.18094 8.03411,-28.68207 0,-28.42596 -21.49662,-51.83275 -49.12336,-54.85799 4.9052,-8.24147 7.72857,-17.86922 7.72857,-28.15956 0,-30.47826 -24.7148,-55.19305 -55.20267,-55.19305 h -19.77939 c -4.94502,-3.43996 -36.46969,-26.69844 -15.9206,-46.872631 6.05047,-5.932375 -8.95212,-14.331766 -22.86917,-5.053504 -7.84666,5.230651 -28.70198,20.884845 -22.55332,51.926135 h -2.32901 c -30.47895,0 -55.1958,24.71411 -55.1958,55.19305 0,10.28965 2.82543,19.9174 7.72307,28.15956 -27.62125,3.02524 -49.11581,26.43203 -49.11581,54.85799 0,10.50181 2.93392,20.3225 8.03205,28.68207 -25.852517,4.59004 -45.486343,27.16259 -45.486343,54.32929 0,30.47895 24.714113,55.19306 55.197863,55.19306 h 241.14761 c 30.48856,0 55.20267,-24.71479 55.20267,-55.19306 0,-27.1667 -19.64138,-49.73925 -45.49047,-54.32929 z"
           id="path2" />
        <g
           id="g6"
           transform="matrix(0.68661746,0,0,0.68661746,80.226087,75.873711)"
           style="fill:#d35f5f">
		<path
   style="fill:#d35f5f"
   d="m 445.747,324.715 c 7.417,-12.176 11.701,-26.479 11.701,-41.773 0,-41.4 -31.308,-75.49 -71.544,-79.896 7.144,-12.003 11.256,-26.025 11.256,-41.012 0,-44.389 -35.995,-80.384 -80.398,-80.384 h -28.807 c -2.717,-1.883 -10.896,-7.863 -18.472,-16.143 v 418.718 h 162.12 c 44.404,0 80.398,-35.995 80.398,-80.384 C 512,364.275 483.394,331.4 445.747,324.715 Z"
   id="path4" />

	</g>
      </g>
      <g
         id="g339"
         transform="matrix(0.14808782,0,0,0.14808782,65.599803,74.933434)">
        <path
           style="fill:#ff80b2"
           d="m 196.267,245.657 c -23.725,0 -45.899,-6.788 -64.776,-18.489 l -46.804,108.412 30.384,-1.875 c 3.491,-0.259 6.788,1.228 8.986,3.879 l 19.459,23.402 42.731,-98.909 c 3.814,-8.727 16.162,-8.727 19.911,0 l 42.731,98.909 19.459,-23.402 c 2.263,-2.65 5.56,-4.073 8.986,-3.879 l 30.384,1.875 -46.804,-108.412 c -18.748,11.701 -40.922,18.489 -64.647,18.489 z"
           id="path277" />
        <path
           style="fill:#ffffff"
           d="m 196.267,223.871 c 55.725,0 100.978,-45.253 100.978,-100.978 0,-55.725 -45.253,-100.978 -100.978,-100.978 -55.725,0 -100.978,45.253 -100.978,100.978 0,55.596 45.252,100.978 100.978,100.978 z"
           id="path279" />
        <path
           style="fill:#00d400"
           d="m 250.57,107.184 c 0,-14.352 -12.412,-25.988 -27.152,-24.501 -7.628,0.776 -14.481,5.495 -18.683,11.96 v 0 c -4.008,6.077 -12.994,6.077 -17.002,0 -4.267,-6.465 -10.99,-11.184 -18.683,-11.96 -14.675,-1.487 -27.152,10.149 -27.152,24.501 0,16.549 29.737,49.39 54.238,70.982 24.632,-21.915 54.434,-55.014 54.434,-70.982 z"
           id="path281" />
        <g
           id="g287"
           style="fill:#ff0066">
	<path
   style="fill:#ff0066"
   d="M 334.869,343.208 278.82,213.527 C 303.45,191.03 319.03,158.642 319.03,122.763 319.03,55.079 263.952,0 196.267,0 128.582,0 73.503,55.079 73.503,122.764 c 0,35.943 15.515,68.331 40.21,90.764 l -56.048,129.68 c -3.232,7.434 2.521,15.58 10.602,15.127 l 42.667,-2.65 27.345,32.84 c 5.172,6.206 15.063,4.784 18.295,-2.65 l 39.693,-91.927 39.693,92.057 c 3.232,7.434 13.123,8.857 18.295,2.65 l 27.345,-32.84 42.667,2.65 c 8.08,0.452 13.899,-7.758 10.602,-15.257 z M 95.289,122.764 c 0,-55.661 45.253,-100.978 100.978,-100.978 55.725,0 100.978,45.253 100.978,100.978 0,55.725 -45.253,100.978 -100.978,100.978 -55.725,0 -100.978,-45.253 -100.978,-100.978 z M 277.398,333.64 c -3.491,-0.259 -6.788,1.228 -8.986,3.879 l -19.459,23.402 -42.731,-98.909 c -3.814,-8.727 -16.162,-8.727 -19.911,0 l -42.731,98.909 -19.459,-23.402 c -2.263,-2.65 -5.56,-4.073 -8.986,-3.879 l -30.384,1.875 46.869,-108.412 c 18.747,11.766 40.986,18.489 64.776,18.489 23.725,0 45.899,-6.788 64.776,-18.489 l 46.804,108.412 z"
   id="path283" />

	<path
   style="fill:#ff0066"
   d="m 189.285,200.986 0.453,0.388 c 3.814,3.168 9.244,3.103 13.059,-0.065 l 0.453,-0.388 c 11.507,-9.762 69.107,-59.798 69.107,-93.802 0,-25.471 -20.816,-46.352 -46.416,-46.352 -11.055,0 -21.463,3.879 -29.673,10.731 -8.21,-6.853 -18.683,-10.731 -29.673,-10.731 -25.6,0 -46.416,20.816 -46.416,46.416 -0.001,34.781 57.599,84.3 69.106,93.803 z M 169.05,82.683 c 7.758,0.776 14.481,5.495 18.683,11.96 4.008,6.077 12.994,6.077 17.002,0 4.267,-6.465 10.99,-11.184 18.683,-11.96 14.675,-1.487 27.152,10.149 27.152,24.501 0,15.968 -29.802,49.067 -54.432,70.982 -24.436,-21.592 -54.174,-54.432 -54.174,-70.982 0,-14.416 12.412,-25.988 27.086,-24.501 z"
   id="path285" />

</g>
      </g>
    </g>
  </g>
</svg>
